<svg version="1.1" id="Layer_1" xmlns="http://www.w3.org/2000/svg" xmlns:xlink="http://www.w3.org/1999/xlink" x="0px" y="0px"
   width="65px" height="65px"
	 viewBox="0 0 65 65" style="enable-background:new 0 0 65 65;" xml:space="preserve">
<style type="text/css">
	.st0{fill:#BBBBBB;stroke:#444444;stroke-width:2;stroke-miterlimit:10;}
	.st1{fill:#FFFFFF;stroke:#444444;stroke-width:2;stroke-miterlimit:10;}
	.st2{fill:none;stroke:#444444;stroke-width:2;stroke-miterlimit:10;}
	.st3{fill:#444444;stroke:#444444;stroke-width:0.5;stroke-miterlimit:10;}
</style>
<path class="st0" d="M61.7,47.3H61V27c0-1.2-1-2.1-2-2.1h-0.7v-8.2c0-1.2-1-2.1-2.1-2.1h-2.1v-14H11.2v14H9.1c-1.2,0-2.1,1-2.1,2.1
	V25H6.1c-1.2,0-2,1-2,2.1v20.2H3.3c-1.1,0-1.9,0.9-1.9,1.8v15.3h62.2V49C63.6,48.2,62.8,47.3,61.7,47.3z"/>
<rect x="16.1" y="14.9" class="st1" width="32.7" height="10"/>
<rect x="16.1" y="5.3" class="st1" width="32.7" height="4.3"/>
<rect x="16.1" y="50.2" class="st1" width="32.7" height="8.7"/>
<rect x="16.1" y="30.3" class="st1" width="32.7" height="14.7"/>
<line class="st2" x1="11.2" y1="12.8" x2="11.2" y2="64.3"/>
<line class="st2" x1="54.1" y1="12.1" x2="54.1" y2="64.1"/>
<line class="st2" x1="6.9" y1="25" x2="11.2" y2="25"/>
<line class="st2" x1="3.3" y1="47.3" x2="11.2" y2="47.3"/>
<line class="st2" x1="60.9" y1="47.3" x2="53.9" y2="47.3"/>
<line class="st2" x1="58.2" y1="25" x2="53.9" y2="25"/>
<path class="st3" d="M20.3,32.1c0.4-0.3,1-0.6,1.1-1.3h-1c-0.1,0.2-0.3,0.3-0.6,0.5c-0.5,0.3-1.2,0.7-1.2,1.5s0.6,1.2,1.2,1.5
	c0.5,0.3,0.7,0.4,0.7,0.7s-0.2,0.4-0.7,0.7s-1.2,0.7-1.2,1.5c0,0.9,0.6,1.2,1.2,1.5c0.5,0.3,0.7,0.4,0.7,0.7c0,0.2,0.2,0.4,0.4,0.4
	c0.2,0,0.4-0.2,0.4-0.4c0-0.9-0.6-1.2-1.2-1.5c-0.5-0.3-0.7-0.4-0.7-0.7s0.2-0.4,0.7-0.7s1.2-0.7,1.2-1.5c0-0.9-0.6-1.2-1.2-1.5
	c-0.5-0.3-0.7-0.4-0.7-0.7C19.5,32.5,19.7,32.4,20.3,32.1z"/>
<path class="st3" d="M43.8,44.8C43.3,44.5,43,44.3,43,44s0.2-0.5,0.7-0.9s1.2-0.7,1.2-1.6c0-0.9-0.6-1.3-1.2-1.6
	C43.3,39.6,43,39.4,43,39c0-0.2-0.2-0.4-0.4-0.4s-0.4,0.2-0.4,0.4c0,0.9,0.6,1.3,1.2,1.6c0.5,0.3,0.7,0.5,0.7,0.9
	c0,0.3-0.2,0.5-0.7,0.9s-1.2,0.7-1.2,1.6c0,0.6,0.3,1,0.6,1.3h1.5C44.1,45.1,43.9,45,43.8,44.8z"/>
<path class="st3" d="M28.8,23.8C28.3,23.5,28,23.3,28,23s0.2-0.5,0.7-0.9c0.5-0.3,1.2-0.7,1.2-1.6s-0.6-1.3-1.2-1.6
	C28.3,18.6,28,18.4,28,18c0-0.2-0.2-0.4-0.4-0.4c-0.2,0-0.4,0.2-0.4,0.4c0,0.9,0.6,1.3,1.2,1.6c0.5,0.3,0.7,0.5,0.7,0.9
	c0,0.3-0.2,0.5-0.7,0.9c-0.5,0.3-1.2,0.7-1.2,1.6c0,0.6,0.3,1,0.6,1.3h1.5C29.1,24.1,28.9,24,28.8,23.8z"/>
<path class="st3" d="M29,32c0.4-0.3,1-0.6,1.1-1.3h-1c-0.1,0.1-0.3,0.3-0.6,0.5c-0.5,0.3-1.2,0.7-1.2,1.6c0,0.9,0.6,1.3,1.2,1.6
	s0.7,0.5,0.7,0.9c0,0.3-0.2,0.5-0.7,0.9s-1.2,0.7-1.2,1.6s0.6,1.3,1.2,1.6s0.7,0.5,0.7,0.9c0,0.3-0.2,0.5-0.7,0.9s-1.2,0.7-1.2,1.6
	s0.6,1.3,1.2,1.6c0.5,0.3,0.7,0.5,0.7,0.9c0,0.2,0.2,0.4,0.4,0.4s0.4-0.2,0.4-0.4c0-0.9-0.6-1.3-1.2-1.6c-0.5-0.3-0.7-0.5-0.7-0.9
	s0.2-0.5,0.7-0.9s1.2-0.7,1.2-1.6c0-0.9-0.6-1.3-1.2-1.6c-0.5-0.3-0.7-0.5-0.7-0.9s0.2-0.5,0.7-0.9c0.5-0.3,1.2-0.7,1.2-1.6
	c0-0.9-0.6-1.3-1.2-1.6s-0.7-0.5-0.7-0.9C28.4,32.5,28.6,32.3,29,32z"/>
<path class="st3" d="M37.6,31.1c0.1-0.1,0.3-0.2,0.4-0.3h-1.5c-0.3,0.3-0.5,0.6-0.5,1.1c0,0.9,0.6,1.3,1.2,1.6
	c0.5,0.3,0.7,0.5,0.7,0.9c0,0.3-0.2,0.5-0.7,0.9S36,35.9,36,36.8c0,0.9,0.6,1.3,1.2,1.6c0.5,0.3,0.7,0.5,0.7,0.9
	c0,0.2,0.2,0.4,0.4,0.4s0.4-0.2,0.4-0.4c0-0.9-0.6-1.3-1.2-1.6c-0.5-0.3-0.7-0.5-0.7-0.9c0-0.3,0.2-0.5,0.7-0.9s1.2-0.7,1.2-1.6
	c0-0.9-0.6-1.3-1.2-1.6c-0.5-0.3-0.7-0.5-0.7-0.9C36.8,31.7,37.1,31.4,37.6,31.1z"/>
</svg>
