<?xml version="1.0" encoding="UTF-8" standalone="no"?>
<!DOCTYPE svg PUBLIC "-//W3C//DTD SVG 20010904//EN"
              "http://www.w3.org/TR/2001/REC-SVG-20010904/DTD/svg10.dtd">

<svg xmlns="http://www.w3.org/2000/svg"
     width="28.875in" height="9.58333in"
     viewBox="0 0 2079 690">
  <path id="LogoName" fill-rule="evenodd"
        fill="white" stroke="black" stroke-width="1"
        d="M 2039.00,152.25
           C 2075.01,153.49 2083.19,204.40 2050.00,217.54
             2045.41,219.35 2040.93,220.16 2036.00,219.96
             2009.38,218.89 1995.46,188.77 2009.55,167.00
             2015.02,158.55 2022.42,154.60 2032.00,152.25
             2034.62,152.10 2036.32,151.93 2039.00,152.25 Z
           M 2070.90,209.00
           C 2068.26,212.96 2063.94,217.42 2060.00,220.09
             2055.02,223.46 2048.92,225.63 2043.00,226.56
             2037.96,227.36 2032.97,227.08 2028.00,225.98
             1993.50,218.41 1985.04,173.88 2012.00,152.38
             2017.61,147.91 2024.06,145.74 2031.00,144.44
             2068.08,139.69 2090.34,179.79 2070.90,209.00 Z
           M 1407.50,356.63
           C 1407.50,356.63 1493.63,356.88 1493.63,356.88
             1499.00,343.00 1497.75,319.13 1469.50,310.63
             1464.13,308.63 1452.75,309.13 1447.75,310.38
             1419.50,317.50 1408.88,347.38 1407.50,356.63 Z
           M 1405.81,365.41
           C 1405.81,365.41 1519.43,365.28 1519.43,365.28
             1522.68,331.53 1504.18,301.53 1458.31,300.78
             1404.68,303.16 1378.93,346.91 1377.68,377.78
             1377.68,377.78 1377.56,388.91 1377.56,388.91
             1395.56,486.16 1491.43,469.41 1524.43,435.91
             1524.43,435.91 1521.18,431.66 1521.18,431.66
             1482.18,468.41 1393.81,460.78 1405.81,365.41 Z
           M 1672.73,352.00
           C 1671.94,310.13 1645.75,302.88 1628.94,301.00
             1620.00,299.75 1611.00,299.56 1599.94,301.06
             1574.17,305.00 1560.74,318.78 1559.06,330.00
             1559.06,330.00 1559.00,334.88 1559.00,334.88
             1559.06,339.69 1564.13,343.56 1567.00,344.06
             1567.58,344.30 1573.30,344.23 1573.94,344.00
             1576.83,343.39 1580.25,341.27 1581.81,336.06
             1581.83,336.10 1582.02,328.03 1582.00,328.00
             1584.96,318.83 1589.91,310.83 1607.75,306.06
             1611.05,305.77 1616.09,305.70 1621.94,305.94
             1638.63,308.50 1646.94,318.25 1648.94,341.06
             1648.94,341.06 1648.88,363.00 1648.88,363.00
             1605.50,372.38 1558.25,381.44 1550.06,419.06
             1550.00,420.39 1549.57,429.81 1550.06,432.00
             1552.94,445.88 1560.81,456.63 1579.94,460.00
             1583.25,460.63 1589.13,461.50 1595.94,459.94
             1616.44,455.13 1628.50,445.63 1646.94,429.13
             1646.94,429.13 1648.88,429.00 1648.88,429.00
             1651.50,436.25 1649.75,453.06 1670.06,459.00
             1672.25,459.63 1680.25,459.94 1682.94,458.94
             1696.88,453.75 1693.56,455.38 1701.88,449.00
             1701.88,449.00 1700.13,447.88 1700.13,447.88
             1698.44,449.31 1696.00,451.69 1690.06,452.81
             1690.06,452.81 1687.00,452.94 1687.00,452.94
             1675.41,451.84 1672.50,438.81 1672.94,431.94
             1672.94,431.94 1672.73,352.00 1672.73,352.00 Z
           M 1648.91,368.09
           C 1600.45,377.91 1576.64,397.55 1575.73,415.82
             1574.82,433.82 1581.00,442.45 1594.00,447.91
             1599.00,449.64 1606.18,449.27 1611.00,448.00
             1620.55,445.82 1639.82,433.18 1648.91,423.27
             1648.91,423.27 1648.91,368.09 1648.91,368.09 Z
           M 1700.00,311.00
           C 1700.00,311.00 1754.00,301.25 1754.00,301.25
             1757.31,307.75 1758.63,311.44 1762.25,339.50
             1774.69,328.06 1776.81,316.88 1808.25,303.00
             1817.06,299.13 1829.25,299.63 1835.00,300.75
             1855.75,305.13 1866.13,314.13 1873.25,340.25
             1873.82,340.30 1874.52,340.23 1875.00,340.03
             1893.25,315.56 1907.06,308.44 1927.00,301.75
             1930.38,300.20 1945.76,299.87 1951.75,301.00
             1984.75,308.75 1987.44,331.13 1990.00,356.75
             1990.00,356.75 1990.00,408.50 1990.00,408.50
             1989.75,427.56 1993.75,453.81 2023.04,453.04
             2023.04,453.04 2023.04,454.00 2023.04,454.00
             2023.04,454.00 1940.04,453.91 1940.04,453.91
             1940.04,453.91 1940.00,453.00 1940.00,453.00
             1966.19,453.56 1965.75,428.38 1966.00,407.61
             1966.00,407.61 1966.00,360.50 1966.00,360.50
             1966.75,328.75 1948.56,312.69 1931.75,313.00
             1896.06,312.38 1874.88,346.88 1875.00,359.75
             1875.00,359.75 1874.75,412.00 1874.75,412.00
             1875.74,440.17 1881.26,453.17 1901.00,453.00
             1901.00,453.00 1901.00,453.87 1901.00,453.87
             1901.00,453.87 1826.00,453.91 1826.00,453.91
             1826.00,453.91 1825.96,453.04 1825.96,453.04
             1848.35,453.87 1851.78,434.87 1851.91,410.00
             1851.91,410.00 1851.96,360.04 1851.96,360.04
             1852.52,335.22 1838.61,315.09 1821.00,313.04
             1821.00,313.04 1809.00,313.04 1809.00,313.04
             1788.26,314.78 1760.52,341.00 1761.00,360.00
             1761.00,360.00 1760.88,413.88 1760.88,413.88
             1762.50,425.19 1758.38,451.81 1786.00,453.00
             1786.00,453.00 1785.96,453.96 1785.96,453.96
             1785.96,453.96 1705.00,454.00 1705.00,454.00
             1705.00,454.00 1704.97,453.00 1704.97,453.00
             1723.19,453.88 1737.13,441.06 1737.13,411.88
             1737.13,411.88 1737.00,358.13 1737.00,358.13
             1736.64,312.64 1716.27,312.64 1700.00,312.96
             1700.00,312.96 1700.00,311.00 1700.00,311.00 Z
           M 2022.00,163.00
           C 2022.00,163.00 2022.00,209.13 2022.00,209.13
             2022.00,209.13 2029.00,209.00 2029.00,209.00
             2029.00,209.00 2029.00,190.00 2029.00,190.00
             2029.00,190.00 2038.13,190.00 2038.13,190.00
             2047.00,192.13 2044.63,202.50 2047.88,209.25
             2047.88,209.25 2055.00,208.88 2055.00,208.88
             2051.50,199.63 2054.13,190.38 2045.25,187.50
             2045.25,187.50 2045.00,186.00 2045.00,186.00
             2047.63,186.00 2051.63,184.63 2054.00,178.75
             2054.00,178.75 2054.00,172.25 2054.00,172.25
             2052.00,165.63 2047.38,163.75 2040.63,163.00
             2040.63,163.00 2022.00,163.00 2022.00,163.00 Z
           M 2029.38,168.63
           C 2029.38,168.63 2029.50,183.88 2029.50,183.88
             2029.50,183.88 2038.00,183.88 2038.00,183.88
             2042.38,183.75 2045.00,182.25 2046.13,177.75
             2046.13,177.75 2046.00,174.63 2046.00,174.63
             2045.63,172.50 2044.50,169.38 2039.38,168.63
             2039.38,168.63 2029.38,168.63 2029.38,168.63 Z
           M 1320.94,266.94
           C 1320.94,266.94 1320.94,173.19 1320.94,173.19
             1320.94,173.19 1320.06,172.88 1320.06,172.88
             1321.20,178.47 1306.44,195.50 1303.13,195.81
             1302.61,195.87 1302.32,195.84 1302.01,195.76
             1291.87,187.61 1278.78,178.26 1255.81,175.94
             1255.81,175.94 1237.81,176.00 1237.81,176.00
             1191.73,181.64 1176.45,212.36 1174.00,231.00
             1174.00,231.00 1174.00,250.88 1174.00,250.88
             1182.09,300.45 1224.91,314.55 1261.75,333.13
             1312.45,360.09 1320.91,376.91 1322.94,388.94
             1322.94,388.94 1323.00,405.06 1323.00,405.06
             1318.27,435.36 1292.82,449.55 1271.94,451.94
             1266.64,453.27 1254.91,453.55 1246.66,452.48
             1186.91,445.00 1170.82,391.91 1171.66,374.67
             1171.66,374.67 1169.94,373.94 1169.94,373.94
             1169.94,373.94 1170.00,461.94 1170.00,461.94
             1170.00,461.94 1171.00,462.00 1171.00,462.00
             1173.22,454.94 1177.50,447.31 1185.88,440.00
             1185.88,440.00 1189.94,440.06 1189.94,440.06
             1196.78,441.13 1221.65,458.09 1250.94,462.00
             1250.94,462.00 1269.88,461.88 1269.88,461.88
             1300.00,459.64 1339.82,437.36 1344.00,392.06
             1344.00,392.06 1343.94,375.88 1343.94,375.88
             1338.18,327.09 1291.45,314.36 1264.13,298.88
             1229.09,278.64 1206.18,274.00 1195.13,241.88
             1195.13,241.88 1194.88,224.13 1194.88,224.13
             1197.18,210.91 1209.09,188.73 1236.88,185.63
             1236.88,185.63 1256.00,186.00 1256.00,186.00
             1296.09,189.82 1315.27,223.09 1320.00,266.87
             1320.00,266.87 1320.94,266.94 1320.94,266.94 Z
           M 956.75,355.13
           C 956.75,355.13 1042.88,355.38 1042.88,355.38
             1048.25,341.50 1047.00,317.63 1018.75,309.13
             1013.38,307.13 1002.00,307.63 997.00,308.88
             968.75,316.00 958.13,345.88 956.75,355.13 Z
           M 955.13,364.00
           C 955.13,364.00 1068.75,363.88 1068.75,363.88
             1072.00,330.13 1053.50,300.13 1007.63,299.38
             954.00,301.75 928.25,345.50 927.00,376.38
             927.00,376.38 926.88,387.50 926.88,387.50
             944.88,484.75 1040.75,468.00 1073.75,434.50
             1073.75,434.50 1070.50,430.25 1070.50,430.25
             1031.50,467.00 943.13,459.38 955.13,364.00 Z
           M 537.88,182.13
           C 537.88,182.13 768.50,182.13 768.50,182.13
             768.50,182.13 769.00,340.00 769.00,340.00
             826.88,268.13 891.25,297.00 887.25,365.63
             887.25,365.63 887.13,408.63 887.13,408.63
             887.25,452.00 909.25,451.25 924.00,451.88
             924.00,451.88 924.00,452.88 924.00,452.88
             924.00,452.88 831.00,453.13 831.00,453.13
             831.00,453.13 830.88,451.88 830.88,451.88
             850.50,452.75 865.63,446.38 863.88,408.13
             863.88,408.13 863.88,355.50 863.88,355.50
             861.25,294.25 788.00,298.88 768.75,355.13
             768.75,355.13 768.75,413.75 768.75,413.75
             769.00,446.50 779.38,451.50 798.00,452.00
             798.00,452.00 797.88,453.00 797.88,453.00
             797.88,453.00 707.88,453.00 707.88,453.00
             707.88,453.00 707.75,451.75 707.75,451.75
             720.75,452.13 743.00,451.75 744.63,414.00
             744.63,414.00 745.00,236.13 745.00,236.13
             745.75,209.50 740.63,191.25 696.63,191.25
             696.63,191.25 655.13,191.13 655.13,191.13
             655.13,191.13 655.00,407.75 655.00,407.75
             656.38,445.00 667.50,451.13 698.88,452.00
             698.88,452.00 698.63,452.88 698.63,452.88
             698.63,452.88 583.00,452.88 583.00,452.88
             583.00,452.88 583.00,451.88 583.00,451.88
             606.50,452.38 627.88,449.38 627.88,407.88
             627.88,407.88 627.75,191.50 627.75,191.50
             627.75,191.50 585.88,191.25 585.88,191.25
             543.75,192.88 540.88,210.00 535.88,235.88
             535.88,235.88 534.13,235.75 534.13,235.75
             534.13,235.75 537.88,182.13 537.88,182.13 Z" />

  <path id="LogoIconTop"
        fill="#df3128" stroke="black" stroke-width="0"
        d="M 144.67,405.00
           C 144.67,405.00 382.33,185.33 382.33,185.33
             406.33,165.67 402.00,143.33 380.00,123.00
             380.00,123.00 280.33,15.33 280.33,15.33
             256.91,-12.00 229.64,4.36 217.33,18.67
             217.33,18.67 18.33,203.00 18.33,203.00
             -1.00,217.00 -6.50,244.13 14.00,262.33
             14.33,262.33 144.67,405.00 144.67,405.00 Z" />
  <path id="LogoIconBottom"
        fill="#df3128" stroke="black" stroke-width="0"
        d="M 305.67,283.67
           C 305.67,283.67 440.33,431.00 440.33,431.00
             456.13,449.38 447.88,470.75 438.33,479.33
             438.33,479.33 228.67,674.33 228.67,674.33
             203.50,699.06 182.88,686.56 170.00,674.00
             170.00,674.00 66.00,560.33 66.00,560.33
             53.00,548.88 42.50,524.38 70.67,500.33
             70.67,500.33 305.67,283.67 305.67,283.67 Z" />
</svg>
