<?xml version="1.0" encoding="UTF-8" standalone="no"?>
<!DOCTYPE svg PUBLIC "-//W3C//DTD SVG 20010904//EN"
              "http://www.w3.org/TR/2001/REC-SVG-20010904/DTD/svg10.dtd">

<svg xmlns="http://www.w3.org/2000/svg"
     width="6.23611in" height="9.58333in"
     viewBox="0 0 449 690">
  <path id="LogoIconTop"
        fill="#df3128" stroke="black" stroke-width="0"
        d="M 143.67,405.00
           C 143.67,405.00 381.33,185.33 381.33,185.33
             405.33,165.67 401.00,143.33 379.00,123.00
             379.00,123.00 279.33,15.33 279.33,15.33
             255.91,-12.00 228.64,4.36 216.33,18.67
             216.33,18.67 17.33,203.00 17.33,203.00
             -2.00,217.00 -7.50,244.13 13.00,262.33
             13.33,262.33 143.67,405.00 143.67,405.00 Z" />
  <path id="LogoIconBottom"
        fill="#df3128" stroke="black" stroke-width="0"
        d="M 304.67,283.67
           C 304.67,283.67 439.33,431.00 439.33,431.00
             455.13,449.38 446.88,470.75 437.33,479.33
             437.33,479.33 227.67,674.33 227.67,674.33
             202.50,699.06 181.88,686.56 169.00,674.00
             169.00,674.00 65.00,560.33 65.00,560.33
             52.00,548.88 41.50,524.38 69.67,500.33
             69.67,500.33 304.67,283.67 304.67,283.67 Z" />
</svg>
